<svg xmlns="http://www.w3.org/2000/svg" width="28.262" height="28.213" viewBox="0 0 28.262 28.213">
  <g id="Fresh_Vegetables" data-name="Fresh Vegetables" transform="translate(-9.851 -7.886)">
    <g id="Group_4055" data-name="Group 4055" transform="translate(10 8)">
      <path id="Path_17373" data-name="Path 17373" d="M28.961,11.419a1.882,1.882,0,0,0-.851-1.244,6.423,6.423,0,0,0-.67-.372,2.154,2.154,0,0,0,1.527-2.33,1.787,1.787,0,0,0-.753-1.218c-.047-.033-.1-.053-.149-.081,0-.006,0-.012,0-.018a1.787,1.787,0,0,0-.753-1.218,1.884,1.884,0,0,0-1.481-.278,6.328,6.328,0,0,0-.688.189,6.328,6.328,0,0,0,.189-.688,1.88,1.88,0,0,0-.278-1.481,1.789,1.789,0,0,0-1.22-.754h-.017a1.678,1.678,0,0,0-.081-.148,1.787,1.787,0,0,0-1.219-.753,2.153,2.153,0,0,0-2.329,1.528,6.422,6.422,0,0,0-.372-.67,1.882,1.882,0,0,0-1.244-.851,1.789,1.789,0,0,0-1.393.329,2.163,2.163,0,0,0-.427,2.97,10.967,10.967,0,0,1,1.1,1.908l.095.21a6.155,6.155,0,0,0-4.963,1.791A6.225,6.225,0,0,0,12.136,9.3L1.249,26.467a1.646,1.646,0,0,0,2.273,2.274L20.69,17.854a6.2,6.2,0,0,0,2.853-5.815l.21.095a10.99,10.99,0,0,1,1.908,1.1,2.159,2.159,0,0,0,1.268.405,2.106,2.106,0,0,0,1.7-.833,1.785,1.785,0,0,0,.329-1.393ZM27.027,8.983a11.633,11.633,0,0,0-1.234.269,6.828,6.828,0,0,0-2.3-.048l-.074.011.091-.124a5.836,5.836,0,0,1,3.414-2.233A.985.985,0,0,1,27.7,7a.9.9,0,0,1,.373.611,1.264,1.264,0,0,1-1.048,1.375ZM26.02,5.542a.985.985,0,0,1,.778.138.875.875,0,0,1,.247.261,2.04,2.04,0,0,0-.311.036,6.661,6.661,0,0,0-3.951,2.58l-.627.85-1.1.166L24.531,6.1a5.541,5.541,0,0,1,1.49-.557ZM24.014,3.257a1.986,1.986,0,0,0,.036-.311.866.866,0,0,1,.26.246.991.991,0,0,1,.138.778,5.556,5.556,0,0,1-.558,1.491L20.419,8.933l.166-1.1.85-.627a6.662,6.662,0,0,0,2.579-3.951Zm-3.007-.293a1.267,1.267,0,0,1,1.375-1.048.9.9,0,0,1,.611.373.991.991,0,0,1,.138.778A5.842,5.842,0,0,1,20.9,6.482l-.124.091.011-.074a6.808,6.808,0,0,0-.048-2.3,11.786,11.786,0,0,0,.269-1.233ZM17.483,3.8a1.263,1.263,0,0,1,.231-1.714.91.91,0,0,1,.539-.182.88.88,0,0,1,.157.014.988.988,0,0,1,.648.452,5.84,5.84,0,0,1,.835,3.993L19.646,8l-.967-2.137a11.922,11.922,0,0,0-1.2-2.065Zm3.632,12.565a5.312,5.312,0,0,1-.908.727L3.039,27.979a.745.745,0,0,1-1.027-1.028L12.9,9.784a5.347,5.347,0,0,1,.73-.911A5.26,5.26,0,0,1,18.4,7.43l1.057,2.335a.458.458,0,0,0,.094.131l0,0,.546.546h0a.437.437,0,0,0,.132.093l2.335,1.057A5.256,5.256,0,0,1,21.115,16.364ZM27.9,12.277a1.265,1.265,0,0,1-1.713.231,11.9,11.9,0,0,0-2.065-1.2l-2.137-.967,1.638-.247a5.833,5.833,0,0,1,3.993.835.989.989,0,0,1,.452.648.9.9,0,0,1-.168.7Z" transform="translate(-0.99 -1.002)" fill="#212121" stroke="#212121" stroke-width="0.2"/>
      <path id="Path_17374" data-name="Path 17374" d="M30.944,24.91a4.062,4.062,0,0,1-1.2-2.891V22L29,22.019a4.836,4.836,0,0,0,4.854,4.836l-.019-.747A4.062,4.062,0,0,1,30.944,24.91Z" transform="translate(-16.431 -11.425)" fill="#212121" stroke="#212121" stroke-width="0.2"/>
      <path id="Path_17375" data-name="Path 17375" d="M25.693,31.286A3.211,3.211,0,0,1,24.747,29H24a3.952,3.952,0,0,0,1.165,2.814l.128.128a3.952,3.952,0,0,0,2.814,1.165v-.747a3.211,3.211,0,0,1-2.286-.947Z" transform="translate(-13.298 -15.811)" fill="#212121" stroke="#212121" stroke-width="0.2"/>
      <path id="Path_17376" data-name="Path 17376" d="M20.571,37.163a2.8,2.8,0,0,1-.824-1.99V35H19v.174a3.561,3.561,0,0,0,3.56,3.561h.174v-.747H22.56A2.8,2.8,0,0,1,20.571,37.163Z" transform="translate(-10.165 -19.57)" fill="#212121" stroke="#212121" stroke-width="0.2"/>
      <path id="Path_17377" data-name="Path 17377" d="M15.011,45.23a.9.9,0,0,1-.264-.637V44H14v.592a1.648,1.648,0,0,0,1.648,1.648h.592v-.747h-.592a.9.9,0,0,1-.637-.264Z" transform="translate(-7.033 -25.21)" fill="#212121" stroke="#212121" stroke-width="0.2"/>
    </g>
  </g>
</svg>
